<?xml version="1.0" encoding="UTF-8"?>
<svg xmlns="http://www.w3.org/2000/svg" viewBox="0 0 128 128" role="img" aria-label="通知"><defs>
  <linearGradient id="paper" x1="0" y1="0" x2="0" y2="1"><stop offset="0" stop-color="#fff7e5"/><stop offset=".58" stop-color="#f0d6a8"/><stop offset="1" stop-color="#d5ad6e"/></linearGradient>
  <linearGradient id="paperEdge" x1="0" y1="0" x2="1" y2="1"><stop offset="0" stop-color="#fff2d2"/><stop offset=".48" stop-color="#e6c18b"/><stop offset="1" stop-color="#b97b3f"/></linearGradient>
  <linearGradient id="wood" x1="0" y1="0" x2="0" y2="1"><stop offset="0" stop-color="#d99a43"/><stop offset=".5" stop-color="#a85e21"/><stop offset="1" stop-color="#663917"/></linearGradient>
  <linearGradient id="woodLight" x1="0" y1="0" x2="1" y2="1"><stop offset="0" stop-color="#edb95d"/><stop offset=".55" stop-color="#ba742e"/><stop offset="1" stop-color="#7a431a"/></linearGradient>
  <linearGradient id="gold" x1="0" y1="0" x2="0" y2="1"><stop offset="0" stop-color="#ffd56b"/><stop offset=".55" stop-color="#e69a25"/><stop offset="1" stop-color="#9c571a"/></linearGradient>
  <linearGradient id="leaf" x1="0" y1="0" x2="1" y2="1"><stop offset="0" stop-color="#8fb456"/><stop offset=".55" stop-color="#648b3c"/><stop offset="1" stop-color="#3d612e"/></linearGradient>
  <radialGradient id="lamp"><stop offset="0" stop-color="#fffbd1"/><stop offset=".48" stop-color="#ffd86d"/><stop offset="1" stop-color="#e18b21"/></radialGradient>
  <filter id="shadow" x="-30%" y="-30%" width="160%" height="175%"><feDropShadow dx="0" dy="4" stdDeviation="3.2" flood-color="#2a170b" flood-opacity=".34"/></filter>
  <filter id="smallShadow" x="-30%" y="-30%" width="160%" height="170%"><feDropShadow dx="0" dy="2" stdDeviation="1.8" flood-color="#2a170b" flood-opacity=".3"/></filter>
  <filter id="tinyGlow" x="-100%" y="-100%" width="300%" height="300%"><feGaussianBlur stdDeviation="3"/></filter>
</defs><g filter="url(#shadow)">
  <circle cx="64" cy="64" r="53" fill="url(#paperEdge)" stroke="#70401f" stroke-width="3.5"/>
  <circle cx="64" cy="64" r="46" fill="url(#paper)" stroke="#f8deb2" stroke-width="3"/>
  <circle cx="64" cy="64" r="41.5" fill="none" stroke="#bd8147" stroke-width="1.8" opacity=".7"/>
  <g filter="url(#smallShadow)" stroke="#4b2d1c" stroke-linejoin="round" stroke-linecap="round">
  <path d="M38 80h52c-7-9-9-18-9-31 0-13-7-23-17-23S47 36 47 49c0 13-2 22-9 31Z" fill="url(#paper)" stroke-width="5"/>
  <path d="M55 87c1 8 4 12 9 12s8-4 9-12" fill="url(#wood)" stroke-width="5"/>
  <path d="M81 31c8-6 15-4 20 0-1 8-7 12-15 13" fill="url(#leaf)" stroke="#3e612d" stroke-width="3"/>
  <path d="M53 75h22" fill="none" stroke="#c18435" stroke-width="2" opacity=".8"/>
</g>
</g></svg>
