<?xml version="1.0" encoding="UTF-8"?>
<svg xmlns="http://www.w3.org/2000/svg" viewBox="0 0 128 128" role="img" aria-label="見積回答"><defs>
  <linearGradient id="paper" x1="0" y1="0" x2="0" y2="1"><stop offset="0" stop-color="#fff7e5"/><stop offset=".58" stop-color="#f0d6a8"/><stop offset="1" stop-color="#d5ad6e"/></linearGradient>
  <linearGradient id="paperEdge" x1="0" y1="0" x2="1" y2="1"><stop offset="0" stop-color="#fff2d2"/><stop offset=".48" stop-color="#e6c18b"/><stop offset="1" stop-color="#b97b3f"/></linearGradient>
  <linearGradient id="wood" x1="0" y1="0" x2="0" y2="1"><stop offset="0" stop-color="#d99a43"/><stop offset=".5" stop-color="#a85e21"/><stop offset="1" stop-color="#663917"/></linearGradient>
  <linearGradient id="woodLight" x1="0" y1="0" x2="1" y2="1"><stop offset="0" stop-color="#edb95d"/><stop offset=".55" stop-color="#ba742e"/><stop offset="1" stop-color="#7a431a"/></linearGradient>
  <linearGradient id="gold" x1="0" y1="0" x2="0" y2="1"><stop offset="0" stop-color="#ffd56b"/><stop offset=".55" stop-color="#e69a25"/><stop offset="1" stop-color="#9c571a"/></linearGradient>
  <linearGradient id="leaf" x1="0" y1="0" x2="1" y2="1"><stop offset="0" stop-color="#8fb456"/><stop offset=".55" stop-color="#648b3c"/><stop offset="1" stop-color="#3d612e"/></linearGradient>
  <radialGradient id="lamp"><stop offset="0" stop-color="#fffbd1"/><stop offset=".48" stop-color="#ffd86d"/><stop offset="1" stop-color="#e18b21"/></radialGradient>
  <filter id="shadow" x="-30%" y="-30%" width="160%" height="175%"><feDropShadow dx="0" dy="4" stdDeviation="3.2" flood-color="#2a170b" flood-opacity=".34"/></filter>
  <filter id="smallShadow" x="-30%" y="-30%" width="160%" height="170%"><feDropShadow dx="0" dy="2" stdDeviation="1.8" flood-color="#2a170b" flood-opacity=".3"/></filter>
  <filter id="tinyGlow" x="-100%" y="-100%" width="300%" height="300%"><feGaussianBlur stdDeviation="3"/></filter>
</defs><g filter="url(#smallShadow)" stroke="#4b2d1c" stroke-linejoin="round" stroke-linecap="round">
  <rect x="30" y="24" width="61" height="85" rx="8" fill="url(#paper)" stroke-width="5"/>
  <path d="M48 27v-8h25v8h8v15H40V27Z" fill="url(#gold)" stroke-width="5"/>
  <path d="M44 55h34M44 68h27M44 81h21" fill="none" stroke="#76522e" stroke-width="4"/>
  <circle cx="89" cy="91" r="22" fill="url(#leaf)" stroke="#365c2b" stroke-width="4"/>
  <path d="m78 91 8 8 15-18" fill="none" stroke="#fff4d4" stroke-width="6"/>
</g></svg>
